<?xml version="1.0" standalone="no"?>
<!DOCTYPE svg PUBLIC "-//W3C//DTD SVG 20010904//EN"
 "http://www.w3.org/TR/2001/REC-SVG-20010904/DTD/svg10.dtd">
<svg version="1.0" xmlns="http://www.w3.org/2000/svg"
 width="441.000000pt" height="441.000000pt" viewBox="0 0 441.000000 441.000000"
 preserveAspectRatio="xMidYMid meet">
<metadata>
Created by potrace 1.14, written by Peter Selinger 2001-2017
</metadata>
<g transform="translate(0.000000,441.000000) scale(0.100000,-0.100000)"
fill="#000000" stroke="none">
<path d="M2015 3879 c-49 -10 -101 -21 -115 -24 -48 -11 -165 -56 -205 -79
-22 -13 -65 -27 -95 -31 -227 -28 -481 -151 -645 -311 -210 -205 -335 -445
-385 -740 -30 -172 -33 -565 -5 -646 2 -7 7 -31 10 -52 9 -66 53 -221 78 -278
13 -30 34 -87 46 -128 34 -112 105 -247 193 -365 79 -107 182 -218 230 -249
34 -22 35 -45 7 -128 -50 -144 -131 -275 -252 -403 -99 -105 -98 -105 -91
-144 7 -35 35 -47 85 -37 23 4 31 2 35 -12 3 -9 9 -24 14 -33 10 -19 3 -30
-32 -48 -22 -11 -25 -17 -17 -32 5 -11 13 -19 18 -19 27 0 368 152 465 207 33
20 79 46 101 58 144 82 412 276 474 343 l23 26 402 2 c436 2 469 5 636 62 358
122 631 378 755 707 5 11 9 25 10 30 2 6 10 36 19 67 10 31 19 70 22 85 2 15
7 39 9 53 3 14 7 48 10 75 8 76 15 138 19 160 2 11 7 49 11 85 4 36 9 76 11
90 11 61 3 370 -12 445 -2 11 -9 46 -15 79 -37 207 -149 446 -280 601 -53 63
-160 168 -204 200 -22 17 -46 36 -53 42 -21 20 -149 93 -219 125 -35 15 -116
42 -179 57 -64 16 -123 36 -132 44 -47 41 -176 88 -321 116 -133 27 -301 27
-426 0z"/>
</g>
</svg>
